<svg xmlns="http://www.w3.org/2000/svg" xmlns:xlink="http://www.w3.org/1999/xlink" width="107" height="35" viewBox="0 0 107 35">
    <defs>
        <path id="uiry9yqpda" d="M0 0L3.098 0 3.098 18.626 0 18.626z"/>
    </defs>
    <g fill="none" fill-rule="evenodd">
        <g>
            <g>
                <path fill="#FFF" d="M27.15 26.812L30.249 26.812 30.249 8.293 27.15 8.293z" transform="translate(-30.000000, -30.000000) translate(30.000000, 30.000000)"/>
                <g>
                    <path fill="#FFF" d="M37.554 17.515h2.468c.638 0 1.167-.11 1.587-.33.42-.22.756-.496 1.008-.825.252-.33.428-.678.53-1.043.1-.363.15-.69.15-.977 0-.271-.047-.587-.14-.952-.092-.365-.259-.708-.502-1.03-.244-.322-.576-.592-.996-.813-.42-.218-.957-.33-1.612-.33h-2.493v6.3zm-3.075 9.298V8.293h5.19c1.008 0 1.928.137 2.759.407.831.272 1.537.66 2.116 1.17.579.506 1.028 1.134 1.347 1.878.319.746.48 1.584.48 2.516 0 .745-.11 1.486-.328 2.222-.22.737-.576 1.398-1.07 1.982-.497.584-1.139 1.057-1.928 1.421-.789.366-1.763.547-2.922.547h-2.57v6.377H34.48zM59.998 9.336l-1.11 2.54c-.704-.254-1.402-.457-2.09-.611-.689-.152-1.327-.228-1.914-.228-1.025 0-1.835.204-2.43.61-.598.406-.895.923-.895 1.55 0 .542.222.982.667 1.32.445.34 1.004.644 1.676.915.67.271 1.398.547 2.177.826.782.278 1.508.64 2.18 1.08.671.44 1.23.998 1.676 1.676.444.678.667 1.541.667 2.591 0 .812-.148 1.55-.441 2.21-.294.661-.735 1.229-1.323 1.702-.587.474-1.33.843-2.229 1.106-.898.26-1.952.393-3.161.393-.74 0-1.411-.051-2.016-.153-.604-.102-1.145-.227-1.624-.38-.479-.153-.903-.318-1.273-.496-.368-.178-.688-.351-.956-.52l1.335-2.72c.706.392 1.461.692 2.266.903.807.212 1.52.317 2.142.317.302 0 .693-.033 1.17-.101.48-.068.946-.195 1.4-.382.453-.186.844-.439 1.17-.761.327-.321.492-.737.492-1.244 0-.594-.222-1.08-.667-1.461-.446-.38-1.003-.72-1.675-1.017-.672-.296-1.4-.588-2.18-.876-.781-.289-1.507-.632-2.179-1.029-.672-.398-1.23-.889-1.675-1.474-.445-.585-.668-1.324-.668-2.222 0-.643.127-1.274.379-1.894.25-.616.633-1.172 1.146-1.663.511-.49 1.15-.89 1.914-1.194.764-.305 1.667-.457 2.708-.457.655 0 1.288.056 1.902.165.612.11 1.163.233 1.649.37.488.134.891.265 1.21.392.318.127.512.199.58.217M74.557 8.294L74.557 11.266 70.023 11.266 70.023 26.812 66.924 26.812 66.924 11.266 62.49 11.266 62.49 8.294zM77.73 26.813L77.73 8.294 89.922 8.294 89.922 11.113 80.805 11.113 80.805 16.093 88.914 16.093 88.914 18.989 80.805 18.989 80.805 23.917 90.274 23.917 90.274 26.813zM96.396 17.515h2.468c.638 0 1.167-.11 1.587-.33.42-.22.756-.487 1.008-.8.252-.313.428-.652.529-1.016.1-.364.15-.7.15-1.004 0-.287-.046-.612-.138-.977-.093-.365-.26-.708-.503-1.03-.244-.322-.576-.592-.996-.813-.42-.218-.957-.33-1.612-.33h-2.493v6.3zm-3.075 9.298V8.293h5.19c1.008 0 1.928.137 2.758.407.832.272 1.538.66 2.117 1.17.579.506 1.028 1.134 1.347 1.878.319.746.48 1.584.48 2.516 0 .508-.051 1.015-.152 1.524-.1.507-.261 1-.478 1.473-.22.475-.505.911-.857 1.308-.353.398-.773.741-1.26 1.03.37.592.73 1.172 1.084 1.74.352.568.71 1.139 1.07 1.713.36.577.734 1.17 1.121 1.779.386.61.806 1.27 1.259 1.982h-3.702c-.756-1.186-1.47-2.307-2.142-3.366-.672-1.059-1.319-2.061-1.94-3.011H96.396v6.377h-3.074z" transform="translate(-30.000000, -30.000000) translate(30.000000, 30.000000)"/>
                    <g>
                        <g transform="translate(-30.000000, -30.000000) translate(30.000000, 30.000000) translate(0.000000, 8.187100)">
                            <mask id="uqq1yhakvb" fill="#fff">
                                <use xlink:href="#uiry9yqpda"/>
                            </mask>
                            <path fill="#FFF" d="M0 0L0 3.687 0 15.539 0 18.626 3.098 18.626 3.098 15.539 3.098 13.211 3.098 6.265 3.098 3.687 3.098 0z" mask="url(#uqq1yhakvb)"/>
                        </g>
                        <path fill="#FFF" d="M20.299 8.187L20.299 11.874 20.299 23.726 20.299 26.813 23.396 26.813 23.396 23.726 23.396 21.398 23.396 14.453 23.396 11.874 23.396 8.187z" transform="translate(-30.000000, -30.000000) translate(30.000000, 30.000000)"/>
                        <path fill="#00B1AC" d="M3.098 5.512v-.819c0-.82.744-1.483 1.556-1.483h14.163c.812 0 1.472.664 1.472 1.483v.819h3.107v-.819C23.396 2.105 21.383 0 18.817 0H4.654C2.088 0 0 2.105 0 4.693v.819h3.098zM3.098 29.488v.819c0 .82.744 1.483 1.556 1.483h14.163c.812 0 1.472-.664 1.472-1.483v-.819h3.107v.819c0 2.587-2.013 4.693-4.579 4.693H4.654C2.088 35 0 32.894 0 30.307v-.819h3.098z" transform="translate(-30.000000, -30.000000) translate(30.000000, 30.000000)"/>
                        <path fill="#FFF" d="M7.385 19.839c-1.252 0-2.272-1.028-2.272-2.291s1.02-2.29 2.272-2.29c1.252 0 2.271 1.027 2.271 2.29 0 1.263-1.02 2.29-2.271 2.29zm10.854-2.291c0 1.263-1.019 2.29-2.27 2.29-1.253 0-2.271-1.027-2.271-2.29 0-1.263 1.018-2.29 2.27-2.29s2.27 1.027 2.27 2.29zm1.158-.85c-.383-1.585-1.79-2.712-3.429-2.712-1.608 0-3.024 1.13-3.42 2.676-.59-.179-1.191-.187-1.748-.025-.405-1.554-1.793-2.651-3.415-2.651-1.639 0-3.046 1.127-3.43 2.711H2.332V18.4h1.623c.384 1.584 1.791 2.711 3.43 2.711 1.84 0 3.355-1.41 3.517-3.24.31-.136.953-.222 1.551.032.178 1.813 1.69 3.208 3.515 3.208 1.638 0 3.046-1.127 3.43-2.711h2.127v-1.702h-2.128z" transform="translate(-30.000000, -30.000000) translate(30.000000, 30.000000)"/>
                    </g>
                </g>
            </g>
        </g>
    </g>
</svg>
